<?xml version="1.0" encoding="iso-8859-1"?>
<!-- Generator: Adobe Illustrator 19.0.0, SVG Export Plug-In . SVG Version: 6.00 Build 0)  -->
<svg version="1.1" id="Capa_1" xmlns="http://www.w3.org/2000/svg" xmlns:xlink="http://www.w3.org/1999/xlink" x="0px" y="0px"
	 viewBox="0 0 512 512" style="enable-background:new 0 0 512 512;" xml:space="preserve">
<path style="fill:#FFF9EB;" d="M392.463,214.045c0-19.629-15.394-36.201-35.015-36.751c-5.926-0.166-11.539,1.102-16.523,3.478
	c-0.881-33.36-28.18-60.137-61.752-60.137c-21.646,0-40.69,11.13-51.726,27.979c-1.503-10.561-10.987-18.55-22.164-17.603
	c-9.641,0.817-17.542,8.481-18.661,18.091c-0.57,4.891,0.61,9.464,2.949,13.243c-0.089,0.012-0.176,0.025-0.264,0.038
	c-13.522,1.968-23.424,13.79-23.424,27.455v64.687h226.58V214.045z"/>
<g>
	<path style="fill:#FCEFD4;" d="M356.416,177.354c-5.546,0-10.798,1.255-15.491,3.492c-0.8-30.317-23.422-55.193-52.741-59.479
		c-3.592,10.29,0.494,22.006,10.275,27.669c11.729,6.789,18.943,18.91,19.299,32.423c0.207,7.843,4.368,15.047,11.057,19.146
		c6.689,4.099,14.999,4.535,22.079,1.16c1.723-0.821,3.58-1.238,5.519-1.238c7.099,0,12.874,5.775,12.874,12.874
		c0,12.798,10.375,23.173,23.173,23.173v-23.173C392.463,193.492,376.324,177.354,356.416,177.354z"/>
	<path style="fill:#FCEFD4;" d="M207.079,131.008c-8.699,0-16.122,5.4-19.142,13.024h6.684c5.724,0,10.364,4.641,10.364,10.364
		c3.312,13.097,22.691,10.558,22.691-2.952v-3.097c-0.076,0.114-0.156,0.226-0.231,0.34
		C226.026,138.697,217.461,131.008,207.079,131.008z"/>
</g>
<path style="fill:#FF983B;" d="M392.463,285.42L392.463,285.42v-41.196h-226.58v226.58c0,22.752,18.445,41.196,41.196,41.196
	h144.187c22.752,0,41.196-18.445,41.196-41.196l0,0c45.504,0,82.393-36.888,82.393-82.393v-20.598
	C474.855,322.308,437.967,285.42,392.463,285.42z M443.958,388.411c0,28.44-23.056,51.495-51.495,51.495l0,0V316.317l0,0
	c28.44,0,51.495,23.056,51.495,51.495V388.411z"/>
<rect x="196.775" y="275.12" style="fill:#FFF9EB;" width="164.786" height="82.084"/>
<path style="fill:#FFCF5D;" d="M196.78,357.207v115.012c0,5.679,4.62,10.299,10.299,10.299h144.187
	c5.679,0,10.299-4.62,10.299-10.299c0-6.133,0-61.287,0-115.012H196.78z"/>
<g>
	<circle style="fill:#FFF9EB;" cx="243.296" cy="393.25" r="15.449"/>
	<circle style="fill:#FFF9EB;" cx="312.815" cy="434.457" r="25.748"/>
	<circle style="fill:#FFF9EB;" cx="251.02" cy="455.055" r="7.724"/>
</g>
<g>
	<path style="fill:#81493B;" d="M196.164,508.076c-0.649,0.355-1.315,0.684-1.991,0.993
		C194.849,508.76,195.515,508.432,196.164,508.076z"/>
	<path style="fill:#81493B;" d="M191.372,510.188c-0.696,0.239-1.403,0.458-2.121,0.649
		C189.969,510.647,190.674,510.427,191.372,510.188z"/>
	<path style="fill:#81493B;" d="M193.773,509.249c-0.673,0.297-1.356,0.572-2.054,0.82
		C192.417,509.821,193.101,509.546,193.773,509.249z"/>
	<path style="fill:#81493B;" d="M200.23,505.403c-0.578,0.447-1.168,0.877-1.777,1.283
		C199.062,506.281,199.653,505.85,200.23,505.403z"/>
	<path style="fill:#81493B;" d="M198.193,506.854c-0.593,0.387-1.201,0.756-1.822,1.103
		C196.992,507.609,197.6,507.242,198.193,506.854z"/>
	<path style="fill:#81493B;" d="M186.426,511.44c-0.745,0.124-1.499,0.221-2.26,0.29
		C184.929,511.661,185.681,511.563,186.426,511.44z"/>
	<path style="fill:#81493B;" d="M189.112,510.876c-0.741,0.192-1.493,0.349-2.254,0.487
		C187.619,511.225,188.373,511.068,189.112,510.876z"/>
	<path style="fill:#81493B;" d="M183.746,511.762c-0.797,0.062-1.6,0.103-2.414,0.103
		C182.146,511.865,182.949,511.824,183.746,511.762z"/>
	<path style="fill:#81493B;" d="M202.237,503.714c-0.537,0.493-1.094,0.964-1.663,1.419
		C201.144,504.678,201.701,504.208,202.237,503.714z"/>
	<path style="fill:#81493B;" d="M207.083,498.039c-0.403,0.606-0.827,1.195-1.27,1.769
		C206.256,499.233,206.681,498.644,207.083,498.039z"/>
	<path style="fill:#81493B;" d="M208.397,495.875c-0.35,0.634-0.726,1.252-1.118,1.859
		C207.672,497.127,208.047,496.509,208.397,495.875z"/>
	<path style="fill:#81493B;" d="M209.467,493.735c-0.311,0.684-0.639,1.357-0.997,2.013
		C208.829,495.092,209.156,494.418,209.467,493.735z"/>
	<path style="fill:#81493B;" d="M205.544,500.15c-0.456,0.576-0.929,1.138-1.424,1.679
		C204.615,501.288,205.088,500.726,205.544,500.15z"/>
	<path style="fill:#81493B;" d="M211.254,488.697c-0.194,0.751-0.422,1.486-0.669,2.213
		C210.832,490.183,211.062,489.448,211.254,488.697z"/>
	<path style="fill:#81493B;" d="M210.455,491.296c-0.246,0.695-0.518,1.378-0.812,2.048
		C209.937,492.674,210.208,491.991,210.455,491.296z"/>
	<path style="fill:#81493B;" d="M203.954,502.004c-0.481,0.516-0.979,1.015-1.493,1.499
		C202.975,503.019,203.473,502.52,203.954,502.004z"/>
</g>
<path style="fill:#B66652;" d="M160.229,187.01c-9.787-21.531-14.891-44.81-14.944-68.279c-0.062-27.494,0-109.976,0-109.976
	h-41.196H87.362l-5.541,37.957c-2.308,15.809-2.333,31.868-0.073,47.685l0,0c4.501,31.505-0.105,63.64-13.275,92.613v0.001
	c-20.646,45.422-31.328,94.737-31.328,144.631v149.326c0,2.667,0.338,5.256,0.973,7.724l0,0l153.44,10.299
	c0-7.18,0-160.28,0-167.349C191.558,281.748,180.876,232.432,160.229,187.01z"/>
<path style="fill:#A05A4B;" d="M180.901,187.01c-13.169-28.972-17.775-61.108-13.275-92.613l0,0
	c2.26-15.816,2.235-31.876-0.073-47.685l-5.541-37.958h-37.325c0,0-0.062,82.482,0,109.976c0.053,23.234,5.056,46.281,14.651,67.632
	c20.361,45.301,31.622,94.167,31.621,143.833c-0.001,89.184,0.118,126.671,0.008,143.162c-0.057,8.491-6.958,15.335-15.449,15.335
	H38.118l0,0c3.431,13.326,15.527,23.173,29.924,23.173c123.099,0,117.702,1.067,126.131-2.796
	c10.672-4.884,18.056-15.651,18.056-28.101V331.642C212.229,281.748,201.547,232.432,180.901,187.01z"/>
<path style="fill:#FFB545;" d="M206.051,266.232h-20.688c-5.502,0-10.722-2.445-14.237-6.678c-3.108-3.744-6.442-7.117-9.966-10.077
	l9.8,167.811c0.055-0.065,0.112-0.127,0.167-0.193c3.514-4.233,8.736-6.678,14.237-6.678h26.866v-78.777
	C212.229,309.631,210.147,287.733,206.051,266.232z"/>
<path style="fill:#FFCF5D;" d="M161.16,249.477c-10.7-8.986-23.164-14.143-36.473-14.143c-20.166,0-38.394,11.833-51.478,30.897
	H43.323c-4.096,21.501-6.178,43.399-6.178,65.41v78.778h36.064c13.084,19.065,31.312,30.897,51.478,30.897
	c17.617,0,33.751-9.034,46.273-24.028v-85.646C170.96,303.884,167.649,276.306,161.16,249.477z"/>
<path style="fill:#FF983B;" d="M124.687,410.419c-19.447,0-41.196-30.831-41.196-72.094s21.75-72.094,41.196-72.094
	s41.196,30.831,41.196,72.094S144.134,410.419,124.687,410.419z"/>
<path style="fill:#6C7A88;" d="M174.163,21.284l-2.833-8.474C168.703,4.959,163.338,0,157.467,0h-23.173l12.722,30.897h23.173
	C173.492,30.897,175.64,25.7,174.163,21.284z"/>
<path style="fill:#8B9BA9;" d="M150.99,21.284l-2.833-8.474C145.53,4.959,140.164,0,134.294,0h-9.607h-23.173h-9.607
	c-5.87,0-11.236,4.959-13.862,12.81l-2.833,8.474c-1.478,4.416,0.67,9.613,3.972,9.613H93.79h4.963h48.263
	C150.319,30.897,152.467,25.7,150.99,21.284z"/>
<g>
</g>
<g>
</g>
<g>
</g>
<g>
</g>
<g>
</g>
<g>
</g>
<g>
</g>
<g>
</g>
<g>
</g>
<g>
</g>
<g>
</g>
<g>
</g>
<g>
</g>
<g>
</g>
<g>
</g>
</svg>
