<?xml version="1.0" encoding="iso-8859-1"?>
<!-- Generator: Adobe Illustrator 19.0.0, SVG Export Plug-In . SVG Version: 6.00 Build 0)  -->
<svg version="1.1" id="Capa_1" xmlns="http://www.w3.org/2000/svg" xmlns:xlink="http://www.w3.org/1999/xlink" x="0px" y="0px"
	 viewBox="0 0 490.471 490.471" style="enable-background:new 0 0 490.471 490.471;" xml:space="preserve">
<path style="fill:#1976D2;" d="M245.223,9.636c-26.51,0-48,21.49-48,48v32c0,8.837,7.163,16,16,16h64c8.837,0,16-7.163,16-16v-32
	C293.223,31.126,271.733,9.636,245.223,9.636z"/>
<g>
	<path style="fill:#2196F3;" d="M245.223,73.636h-16c-114.817,0.141-207.859,93.183-208,208v64c0,8.837,7.163,16,16,16h96
		c8.837,0,16-7.163,16-16c0.32-114.976,16.64-184.064,104.864-242.688c7.352-4.902,9.338-14.836,4.436-22.188
		C255.558,76.312,250.568,73.64,245.223,73.636z"/>
	<path style="fill:#2196F3;" d="M261.223,73.636h-16c-8.837-0.02-16.016,7.128-16.036,15.964c-0.012,5.382,2.683,10.41,7.172,13.38
		c87.84,58.336,104.224,127.456,104.864,242.656c0,8.837,7.163,16,16,16h96c8.837,0,16-7.163,16-16v-64
		C469.082,166.819,376.04,73.777,261.223,73.636z"/>
</g>
<path style="fill:#64B5F6;" d="M254.087,76.292c-5.369-3.573-12.359-3.573-17.728,0c-99.2,65.952-118.816,148.672-119.136,269.344
	c0,8.837,7.163,16,16,16h224c8.837,0,16-7.163,16-16C372.551,224.74,352.839,141.924,254.087,76.292z"/>
<path style="fill:#1976D2;" d="M489.127,421.572l-20.352-84.256c-1.467-6.066-6.326-10.725-12.448-11.936
	c-193.984-38.4-233.792-35.648-422.08,0c-6.18,1.171-11.101,5.854-12.576,11.968l-20.32,84.128
	c-6.221,25.769,9.627,51.703,35.396,57.923c6.372,1.538,12.992,1.755,19.452,0.637c124.927-23.888,253.249-23.888,378.176,0
	c2.744,0.508,5.529,0.765,8.32,0.768c26.509-0.126,47.898-21.718,47.772-48.227c-0.018-3.719-0.467-7.422-1.34-11.037V421.572z"/>
<path d="M442.695,480.836c-2.789-0.008-5.573-0.254-8.32-0.736c-124.928-23.872-253.247-23.872-378.176,0
	c-26.12,4.527-50.965-12.978-55.491-39.099c-1.122-6.473-0.903-13.108,0.643-19.493l20.32-84.192
	c1.475-6.114,6.396-10.797,12.576-11.968c188.288-35.68,228.128-38.4,422.08,0c6.131,1.216,10.992,5.89,12.448,11.968l20.352,84.288
	c6.204,25.774-9.661,51.696-35.435,57.9C450.091,480.37,446.4,480.817,442.695,480.836L442.695,480.836z M244.295,430.308
	c65.607,0.282,131.06,6.397,195.584,18.272c8.73,1.368,16.916-4.6,18.284-13.33c0.321-2.049,0.241-4.14-0.236-6.158l-17.92-74.304
	c-177.344-34.752-216.128-32.576-389.664,0.096l-17.856,74.112c-1.345,5.267,0.146,10.855,3.936,14.752
	c3.573,3.925,8.932,5.708,14.144,4.704c63.926-11.822,128.783-17.894,193.792-18.144H244.295z"/>
<path d="M453.223,361.636c-8.837,0-16-7.163-16-16v-64c-0.106-97.158-78.842-175.894-176-176h-32
	c-97.158,0.106-175.894,78.842-176,176v64c0,8.837-7.163,16-16,16s-16-7.163-16-16v-64c0.141-114.817,93.183-207.859,208-208h32
	c114.817,0.141,207.859,93.183,208,208v64C469.223,354.472,462.06,361.636,453.223,361.636z"/>
<path d="M133.543,340.196h-0.32c-8.834-0.192-15.84-7.51-15.648-16.344c0-0.003,0-0.005,0-0.008
	c2.336-105.6,23.04-184.032,118.848-247.552c7.37-4.878,17.298-2.858,22.176,4.512s2.858,17.298-4.512,22.176l0,0
	c-84.576,56.064-102.4,123.712-104.544,221.568C149.352,333.246,142.244,340.198,133.543,340.196z"/>
<path d="M356.903,339.556c-8.677,0.003-15.774-6.91-16-15.584c-2.464-97.568-20.352-164.992-104.544-221.024
	c-7.496-4.68-9.778-14.55-5.099-22.045c4.68-7.496,14.55-9.778,22.046-5.099c0.265,0.166,0.526,0.339,0.781,0.52
	c95.36,63.456,116.128,141.472,118.816,246.816c0.233,8.833-6.74,16.183-15.573,16.416c-0.004,0-0.007,0-0.011,0L356.903,339.556z"
	/>
<path d="M277.223,105.636c-8.837,0-16-7.163-16-16v-32c0-8.837-7.163-16-16-16c-8.837,0-16,7.163-16,16v32c0,8.837-7.163,16-16,16
	s-16-7.163-16-16v-32c0-26.51,21.49-48,48-48s48,21.49,48,48v32C293.223,98.472,286.06,105.636,277.223,105.636z"/>
<g>
</g>
<g>
</g>
<g>
</g>
<g>
</g>
<g>
</g>
<g>
</g>
<g>
</g>
<g>
</g>
<g>
</g>
<g>
</g>
<g>
</g>
<g>
</g>
<g>
</g>
<g>
</g>
<g>
</g>
</svg>
