<?xml version="1.0" encoding="iso-8859-1"?>
<!-- Generator: Adobe Illustrator 19.0.0, SVG Export Plug-In . SVG Version: 6.00 Build 0)  -->
<svg version="1.1" id="Capa_1" xmlns="http://www.w3.org/2000/svg" xmlns:xlink="http://www.w3.org/1999/xlink" x="0px" y="0px"
	 viewBox="0 0 512 512" style="enable-background:new 0 0 512 512;" xml:space="preserve">
<rect x="21.333" y="173.867" style="fill:#F2F2F2;" width="469.333" height="256"/>
<rect x="74.667" y="227.2" style="fill:#CDD6E0;" width="362.667" height="149.333"/>
<rect y="124.8" style="fill:#FFD15C;" width="512" height="50.133"/>
<g>
	<rect x="21.333" y="82.133" style="fill:#40596B;" width="27.733" height="42.667"/>
	<rect x="464" y="82.133" style="fill:#40596B;" width="27.733" height="42.667"/>
</g>
<g>
	<path style="fill:#FF7058;" d="M139.733,124.8H112v-11.733c0-7.467,6.4-13.867,13.867-13.867l0,0c7.467,0,13.867,6.4,13.867,13.867
		V124.8z"/>
	<path style="fill:#FF7058;" d="M226.133,124.8H198.4v-11.733c0-7.467,6.4-13.867,13.867-13.867l0,0
		c7.467,0,13.867,6.4,13.867,13.867L226.133,124.8L226.133,124.8z"/>
	<path style="fill:#FF7058;" d="M312.533,124.8H284.8v-11.733c0-7.467,6.4-13.867,13.867-13.867l0,0
		c7.467,0,13.867,6.4,13.867,13.867V124.8L312.533,124.8z"/>
	<path style="fill:#FF7058;" d="M400,124.8h-27.733v-11.733c0-7.467,6.4-13.867,13.867-13.867l0,0c7.467,0,13.867,6.4,13.867,13.867
		V124.8z"/>
</g>
<rect x="21.333" y="173.867" style="fill:#E4EAEF;" width="469.333" height="16"/>
<polygon style="fill:#FF7058;" points="290.133,294.4 267.733,294.4 267.733,246.4 221.867,309.333 244.267,309.333 
	244.267,357.333 "/>
<g>
</g>
<g>
</g>
<g>
</g>
<g>
</g>
<g>
</g>
<g>
</g>
<g>
</g>
<g>
</g>
<g>
</g>
<g>
</g>
<g>
</g>
<g>
</g>
<g>
</g>
<g>
</g>
<g>
</g>
</svg>
