<?xml version="1.0" encoding="iso-8859-1"?>
<!-- Generator: Adobe Illustrator 19.0.0, SVG Export Plug-In . SVG Version: 6.00 Build 0)  -->
<svg version="1.1" id="Capa_1" xmlns="http://www.w3.org/2000/svg" xmlns:xlink="http://www.w3.org/1999/xlink" x="0px" y="0px"
	 viewBox="0 0 512 512" style="enable-background:new 0 0 512 512;" xml:space="preserve">
<path style="fill:#FFDB76;" d="M506.847,441.191H5.151c-2.845,0-5.151-2.306-5.151-5.151v-68.804h511.998v68.804
	C511.998,438.885,509.692,441.191,506.847,441.191z"/>
<path style="fill:#FFC764;" d="M512,367.239v68.796c0,2.854-2.308,5.151-5.151,5.151h-44.298v-73.947H512z"/>
<path style="fill:#B474ED;" d="M504.329,241.206c-30.954,0-56.048-25.094-56.048-56.048l-0.146-109.205
	c-0.004-2.842-2.309-5.144-5.151-5.144h-49.053c-2.847,0-5.154,2.31-5.151,5.157l0.065,60.031
	c0.082,75.586-61.169,136.904-136.755,136.904l0,0c-75.528,0-136.755-61.227-136.755-136.755V76.132
	c0-2.845-2.306-5.151-5.151-5.151H61.135c-2.846,0-5.153,2.308-5.151,5.154l0.064,109.024c0,29.365-22.583,53.456-51.329,55.852
	C2.052,241.233,0,243.459,0,246.135v121.101h511.998V246.357c0-2.845-2.306-5.151-5.151-5.151H504.329z"/>
<path style="fill:#9857DD;" d="M512,246.358V367.24h-49.449v-98.001c0-2.844-2.308-5.151-5.151-5.151h-2.514
	c-30.957,0-56.052-47.976-56.052-78.933l-0.144-109.2c0-2.781-2.205-5.038-4.955-5.13c0.062-0.01,0.134-0.01,0.196-0.01h49.057
	c2.843,0,5.141,2.297,5.151,5.141l0.144,109.2c0,30.957,25.095,56.053,56.042,56.053h2.524C509.692,241.207,512,243.514,512,246.358
	z"/>
<g>
</g>
<g>
</g>
<g>
</g>
<g>
</g>
<g>
</g>
<g>
</g>
<g>
</g>
<g>
</g>
<g>
</g>
<g>
</g>
<g>
</g>
<g>
</g>
<g>
</g>
<g>
</g>
<g>
</g>
</svg>
