<?xml version="1.0" encoding="iso-8859-1"?>
<!-- Generator: Adobe Illustrator 19.0.0, SVG Export Plug-In . SVG Version: 6.00 Build 0)  -->
<svg xmlns="http://www.w3.org/2000/svg" xmlns:xlink="http://www.w3.org/1999/xlink" version="1.1" id="Capa_1" x="0px" y="0px" viewBox="0 0 435.712 435.712" style="enable-background:new 0 0 435.712 435.712;" xml:space="preserve" width="512px" height="512px">
<g>
	<g>
		<path d="M393.936,416.256l-20.992-261.632c-0.512-8.192-4.608-15.872-10.752-21.504l-23.04-20.48    c-2.56-2.048-3.584-5.12-3.584-8.192v-6.144h1.536c3.072,0,5.12-2.048,5.12-5.12V80.896c0-12.8-10.24-23.04-22.528-23.552V46.592    h10.24c3.584,0,6.656-2.048,8.192-5.632c2.048-4.608,1.536-10.24-1.024-13.824c-6.656-8.704-19.968-14.336-33.792-14.336    s-27.136,5.632-33.792,14.336c-3.072,3.584-3.072,9.216-1.024,13.824c1.536,3.584,4.608,5.632,8.192,5.632h8.704v10.24h-0.512    c-13.312,0-23.552,10.752-23.552,23.552v12.288c0,3.072,2.048,5.12,5.12,5.12h3.584v6.144c0,1.024,0,2.048-0.512,3.072    c-12.288-21.504-36.352-38.4-66.048-45.568V51.2h1.536c3.072,0,5.12-2.048,5.12-5.12V5.12c0-3.072-2.048-5.12-5.12-5.12h-71.68    c-3.072,0-5.12,2.048-5.12,5.12v42.496c0,3.072,2.048,5.12,5.12,5.12h1.536v10.24c-44.544,11.264-74.24,42.496-74.24,78.336    c0,8.704,1.536,17.408,5.12,25.6c7.168,17.408,6.656,37.376-2.048,52.736C49.36,245.76,41.68,276.48,41.68,308.224    c0,26.624,5.12,52.736,15.36,75.776c5.12,11.776,16.896,19.456,30.208,19.456h124.416l-1.024,12.8    c-0.512,5.12,1.536,10.24,4.608,13.824c3.584,3.584,8.192,5.632,13.312,5.632h147.456c5.12,0,9.728-2.048,13.312-5.632    S394.448,421.376,393.936,416.256z M277.712,36.864c-0.512-1.024-0.512-2.048,0-2.56c5.12-6.144,14.848-10.24,25.6-10.24    s20.992,4.096,25.6,10.24c0.512,0.512,0.512,2.048,0,2.56H277.712z M309.968,47.104v10.24h-14.336v-10.24H309.968z     M270.544,81.408h0.512c0-7.68,6.144-13.312,13.312-13.312h34.304c7.68,0,13.312,6.144,13.312,13.312v7.168h-61.44V81.408z     M272.592,120.32c4.608-4.096,7.168-9.728,7.168-15.872v-6.144h46.08v6.144c0,6.144,2.56,11.776,7.168,15.872l23.04,20.48    c4.096,3.584,6.656,9.216,7.168,14.848l2.56,31.232c-6.656-0.512-10.752-3.072-15.36-5.632    c-5.632-3.584-12.288-7.168-24.576-7.168c-12.288,0-18.944,4.096-24.576,7.168c-5.12,3.072-9.728,5.632-19.456,5.632    c-9.728,0-14.336-2.56-19.456-5.632c-5.12-3.072-10.752-6.144-20.48-7.168l1.536-18.944c0.512-5.632,3.072-10.752,7.168-14.848    L272.592,120.32z M185.552,10.24h13.824v32.256h-13.824V10.24z M162,10.24h13.824v32.256H162V10.24z M137.936,10.24h13.312v32.256    h-13.312V10.24z M140.496,71.68c2.56-0.512,4.096-2.56,4.096-5.12V52.224h48.128v13.824c0,2.56,1.536,4.608,4.096,5.12    c29.696,6.656,53.76,23.04,64.512,44.544l-19.456,17.408c-5.12,4.608-8.192,10.24-9.728,16.384    c-9.728-0.512-15.36-4.608-21.504-8.704c-7.168-5.12-15.36-10.752-30.72-10.752c-15.872,0-23.552,5.632-30.72,10.752    c-6.656,4.608-12.8,8.704-25.088,8.704c-12.288,0-18.432-4.096-25.088-8.704c-6.656-4.608-13.824-9.216-26.624-10.24    C77.52,103.424,104.144,79.872,140.496,71.68z M212.176,393.728H88.272c-9.216,0-17.408-5.12-20.992-13.312    c-9.728-22.016-14.848-46.592-14.848-71.68c0-30.208,7.168-58.88,20.48-83.968c9.728-18.432,10.752-41.472,2.048-61.44    c-3.072-7.168-4.608-14.336-4.608-21.504v-0.512c10.24,0.512,15.872,4.096,22.016,8.704c7.168,5.12,15.36,10.752,30.72,10.752    s23.552-5.632,30.72-10.752c6.656-4.608,12.8-8.704,25.088-8.704c12.288,0,18.432,4.096,25.088,8.704    c6.144,4.608,13.312,9.216,25.6,10.24L212.176,393.728z M382.16,423.936c-1.536,1.536-3.584,2.56-5.632,2.56H229.584    c-2.048,0-4.096-1.024-5.632-2.56s-2.048-3.584-2.048-6.144l18.944-233.472c7.68,0.512,11.776,3.072,16.384,5.632    c5.632,3.584,12.288,7.168,24.576,7.168c12.288,0,18.944-4.096,24.576-7.168c5.12-3.072,9.728-5.632,19.456-5.632    s14.336,2.56,19.456,5.632c5.12,3.072,11.264,6.656,21.504,7.168l17.92,220.16C384.208,419.84,383.696,421.888,382.16,423.936z" fill="#006DF0"/>
	</g>
</g>
<g>
</g>
<g>
</g>
<g>
</g>
<g>
</g>
<g>
</g>
<g>
</g>
<g>
</g>
<g>
</g>
<g>
</g>
<g>
</g>
<g>
</g>
<g>
</g>
<g>
</g>
<g>
</g>
<g>
</g>
</svg>
