<?xml version="1.0" encoding="iso-8859-1"?>
<!-- Generator: Adobe Illustrator 19.0.0, SVG Export Plug-In . SVG Version: 6.00 Build 0)  -->
<svg version="1.1" id="Capa_1" xmlns="http://www.w3.org/2000/svg" xmlns:xlink="http://www.w3.org/1999/xlink" x="0px" y="0px"
	 viewBox="0 0 512 512" style="enable-background:new 0 0 512 512;" xml:space="preserve">
<polygon style="fill:#FF421D;" points="101.241,168.087 145.953,512 366.055,512 410.766,168.087 "/>
<polygon style="fill:#DE0418;" points="168.525,168.087 192.121,512 256.004,512 256.004,168.087 "/>
<polygon style="fill:#870215;" points="410.766,168.087 343.482,168.087 319.886,512 366.055,512 "/>
<polygon style="fill:#A3021A;" points="256.004,168.087 256.004,512 319.886,512 343.482,168.087 "/>
<path style="fill:#FCE37A;" d="M371.863,52.774c-4.811-26.068-40.531-52.78-76.296-31.161c0,0-10.891-21.613-39.571-21.613
	s-39.562,21.613-39.562,21.613c-35.762-21.619-71.486,5.093-76.297,31.161c-38.147-5.087-65.122,30.548-62.738,56.584l-0.146,35.434
	h357.348v-35.434C436.985,83.322,410,47.687,371.863,52.774z"/>
<path style="fill:#FFDB0C;" d="M371.863,52.774c-4.811-26.068-40.531-52.78-76.296-31.161c0,0-10.891-21.613-39.571-21.613
	c0,39.244,0.008,144.793,0.008,144.793h178.597v-35.434C436.985,83.322,410,47.687,371.863,52.774z"/>
<rect x="77.4" y="109.36" style="fill:#FFA900;" width="357.2" height="70.868"/>
<rect x="256" y="109.36" style="fill:#FF8800;" width="178.6" height="70.868"/>
<g>
</g>
<g>
</g>
<g>
</g>
<g>
</g>
<g>
</g>
<g>
</g>
<g>
</g>
<g>
</g>
<g>
</g>
<g>
</g>
<g>
</g>
<g>
</g>
<g>
</g>
<g>
</g>
<g>
</g>
</svg>
