<?xml version="1.0" encoding="iso-8859-1"?>
<!-- Generator: Adobe Illustrator 19.0.0, SVG Export Plug-In . SVG Version: 6.00 Build 0)  -->
<svg version="1.1" id="Capa_1" xmlns="http://www.w3.org/2000/svg" xmlns:xlink="http://www.w3.org/1999/xlink" x="0px" y="0px"
	 viewBox="0 0 512.029 512.029" style="enable-background:new 0 0 512.029 512.029;" xml:space="preserve">
<path style="fill:#2196F3;" d="M511.567,396.318l-66.752-284.352h-377.6L0.431,396.318c-2.011,8.527,3.21,17.086,11.712,19.2l192,48
	c7.609,1.89,15.467-2.012,18.56-9.216l33.312-77.696l33.28,77.76c3.095,7.219,10.973,11.124,18.592,9.216l192-48
	C508.407,413.454,513.62,404.857,511.567,396.318z"/>
<g>
	<path style="fill:#1976D2;" d="M444.815,111.966h-92.576l-0.224,15.808c-0.141,35.147,14.544,68.724,40.448,92.48
		c17.859,13.469,39.787,20.425,62.144,19.712c6.638-0.051,13.265-0.532,19.84-1.44L444.815,111.966z"/>
	<path style="fill:#1976D2;" d="M37.551,238.526c6.586,0.907,13.224,1.388,19.872,1.44c22.357,0.713,44.285-6.243,62.144-19.712
		c25.904-23.756,40.589-57.333,40.448-92.48l-0.224-15.808H67.215L37.551,238.526z"/>
</g>
<path style="fill:#455A64;" d="M80.015,47.966h352c8.837,0,16,7.163,16,16v64c0,8.837-7.163,16-16,16h-352c-8.837,0-16-7.163-16-16
	v-64C64.015,55.129,71.178,47.966,80.015,47.966z"/>
<path d="M432.015,143.966h-352c-8.837,0-16-7.163-16-16v-64c0-8.837,7.163-16,16-16h352c8.837,0,16,7.163,16,16v64
	C448.015,136.803,440.851,143.966,432.015,143.966z M96.015,111.966h320v-32h-320V111.966z"/>
<path d="M304.015,463.966c-6.371,0.009-12.14-3.761-14.688-9.6l-33.312-77.76l-33.312,77.76c-3.093,7.204-10.951,11.106-18.56,9.216
	l-192-48c-8.502-2.114-13.723-10.673-11.712-19.2l64-272c2.032-8.607,10.657-13.936,19.264-11.904
	c8.607,2.032,13.936,10.657,11.904,19.264L35.215,388.286l163.456,40.864l42.656-99.584c4.319-8.112,14.396-11.187,22.508-6.868
	c2.921,1.555,5.313,3.947,6.868,6.868l42.656,99.488l163.456-40.768l-60.384-256.64c-2.032-8.607,3.297-17.232,11.904-19.264
	c8.607-2.032,17.232,3.297,19.264,11.904l0,0l64,272c2.011,8.527-3.21,17.086-11.712,19.2l-192,48
	C306.62,463.803,305.32,463.965,304.015,463.966z"/>
<path d="M256.015,239.966c-8.837,0-16-7.163-16-16v-96c0-8.837,7.163-16,16-16s16,7.163,16,16v96
	C272.015,232.803,264.851,239.966,256.015,239.966z"/>
<path d="M57.295,239.966c-8.837,0-16-7.163-16-16s7.163-16,16-16c17.774,1.058,35.18-5.371,48-17.728
	c14.428-17.486,22.445-39.38,22.72-62.048c-0.125-8.836,6.937-16.099,15.773-16.224c0.001,0,0.002,0,0.003,0h0.224
	c8.75-0.001,15.878,7.027,16,15.776c-0.114,31.245-11.474,61.404-32,84.96C109.221,231.17,83.622,241.039,57.295,239.966z"/>
<path d="M454.735,239.966c-26.328,1.073-51.926-8.796-70.72-27.264c-20.526-23.556-31.886-53.715-32-84.96
	c0.122-8.749,7.25-15.777,16-15.776h0.16c8.774,0.088,15.84,7.226,15.84,16c0.236,22.767,8.33,44.754,22.912,62.24
	c12.772,12.311,30.096,18.747,47.808,17.76c8.837,0,16,7.163,16,16S463.571,239.966,454.735,239.966z"/>
<g>
</g>
<g>
</g>
<g>
</g>
<g>
</g>
<g>
</g>
<g>
</g>
<g>
</g>
<g>
</g>
<g>
</g>
<g>
</g>
<g>
</g>
<g>
</g>
<g>
</g>
<g>
</g>
<g>
</g>
</svg>
