<?xml version="1.0" encoding="iso-8859-1"?>
<!-- Generator: Adobe Illustrator 19.0.0, SVG Export Plug-In . SVG Version: 6.00 Build 0)  -->
<svg version="1.1" id="Capa_1" xmlns="http://www.w3.org/2000/svg" xmlns:xlink="http://www.w3.org/1999/xlink" x="0px" y="0px"
	 viewBox="0 0 512 512" style="enable-background:new 0 0 512 512;" xml:space="preserve">
<path style="fill:#896748;" d="M158.5,0h-45c-8.401,0-15,6.599-15,15v60c0,8.401,6.599,15,15,15h45l30-23.101v-39.3L158.5,0z"/>
<path style="fill:#73553A;" d="M126.537,175.254c-7.593,3.745-16.473,0.579-20.127-6.709c-3.691-7.412-0.703-16.421,6.709-20.127
	C141.098,134.429,158.5,106.289,158.5,75c0-8.291,6.709-15,15-15s15,6.709,15,15C188.5,117.729,164.77,156.138,126.537,175.254z"/>
<path style="fill:#FEA832;" d="M396.999,68.401l-30-60C364.3,3.3,359.198,0,353.5,0h-195v90h60c8.401,0,15,6.599,15,15v30
	c0,8.401,6.599,15,15,15h60c8.401,0,15-6.599,15-15v-30c0-8.401,6.599-15,15-15h45C394.6,90,401.8,78.3,396.999,68.401z"/>
<path style="fill:#FE9923;" d="M383.5,90h-45c-8.401,0-15,6.599-15,15v30c0,8.401-6.599,15-15,15h-30V0h75
	c5.698,0,10.8,3.3,13.499,8.401l30,60C401.8,78.3,394.6,90,383.5,90z"/>
<path style="fill:#E1E4FB;" d="M353.5,242.701V210l-35.698-30h-92.703L203.5,210v32.701c0,9.3-1.501,18.3-4.501,27.299
	c0,0,13.202,17.401,22.5,30h105L358,270C355.001,261,353.5,252.001,353.5,242.701z"/>
<path style="fill:#C5C9F7;" d="M353.5,242.701c0,9.3,1.501,18.3,4.501,27.299L326.5,300h-48V180h39.302l35.698,30V242.701z"/>
<path style="fill:#1DE8F1;" d="M378.999,304.501c-9.298-9.3-16.498-21-20.999-34.501h-79.5c-73.198,0-79.501,0-79.501,0
	c-4.501,13.5-11.7,25.201-20.999,34.501c-21.902,21.899-34.5,51.899-34.5,82.798V467c0,24.901,20.098,45,45,45h180
	c24.902,0,45-20.099,45-45v-79.701C413.5,356.4,400.902,326.4,378.999,304.501z"/>
<path style="fill:#1BD9DE;" d="M413.5,387.299V467c0,24.901-20.098,45-45,45h-90V270h79.501c4.501,13.5,11.7,25.201,20.999,34.501
	C400.902,326.4,413.5,356.4,413.5,387.299z"/>
<path style="fill:#C5C9F7;" d="M293.5,195v242c0,8.401-6.599,15-15,15s-15-6.599-15-15V195c0-8.401,6.599-15,15-15
	S293.5,186.599,293.5,195z"/>
<path style="fill:#A8AFF1;" d="M293.5,195v242c0,8.401-6.599,15-15,15V180C286.901,180,293.5,186.599,293.5,195z"/>
<path style="fill:#FEDB41;" d="M338.5,120h-120c-8.401,0-15,6.599-15,15v75h150v-75C353.5,126.599,346.901,120,338.5,120z"/>
<path style="fill:#FCBF29;" d="M353.5,210h-75v-90h60c8.401,0,15,6.599,15,15V210z"/>
<g>
</g>
<g>
</g>
<g>
</g>
<g>
</g>
<g>
</g>
<g>
</g>
<g>
</g>
<g>
</g>
<g>
</g>
<g>
</g>
<g>
</g>
<g>
</g>
<g>
</g>
<g>
</g>
<g>
</g>
</svg>
