<?xml version="1.0" encoding="iso-8859-1"?>
<!-- Generator: Adobe Illustrator 19.0.0, SVG Export Plug-In . SVG Version: 6.00 Build 0)  -->
<svg version="1.1" id="Capa_1" xmlns="http://www.w3.org/2000/svg" xmlns:xlink="http://www.w3.org/1999/xlink" x="0px" y="0px"
	 viewBox="0 0 356.8 356.8" style="enable-background:new 0 0 356.8 356.8;" xml:space="preserve">
<polygon style="fill:#3BB7D6;" points="204.4,89.2 237.6,89.2 226.4,68 226.4,39.6 204.4,39.6 "/>
<path style="fill:#EDEDED;" d="M204.4,105.6V66.4l22-26.8h52V5.2c0,0,0,0-65.6,0c-79.2,0-74.8,63.6-74.8,63.6v36.8H204.4z"/>
<path style="fill:#FFFFFF;" d="M235.2,5.2c-6.4,0-13.6,0-22,0c-79.2,0-74.8,63.6-74.8,63.6v36.8h22V68.8
	C160.8,68.8,156,5.2,235.2,5.2z"/>
<path style="fill:#EDEDED;" d="M191.6,351.6c40.8,0,74-33.2,74-74L246,174.8c-14-51.2-33.2-74-74-74s-59.6,22.8-74,74L78.4,277.6
	c0,40.8,33.2,74,74,74H191.6z"/>
<path style="fill:#FFFFFF;" d="M102.8,277.6l19.6-102.8c12.8-45.6,29.2-68.8,61.6-73.2c-4-0.4-8-0.8-12.4-0.8
	c-40.8,0-59.6,22.8-74,74L78,277.6c0,40.8,33.2,74,74,74h24.8C136,351.6,102.8,318.4,102.8,277.6z"/>
<path style="fill:#001A2D;" d="M278.8,44.8c2.8,0,5.2-2.4,5.2-5.2V5.2c0-2.8-2.4-5.2-5.2-5.2h-65.6c-28,0-49.2,7.6-63.2,22.4
	c-18.8,20-17.2,45.6-16.8,46.4v36c-20.8,12.8-32,37.2-40.8,68.8L72.8,276.4c0,0.4,0,0.8,0,1.2c0,43.6,35.6,79.2,79.2,79.2h39.6
	c43.6,0,79.2-35.6,79.2-79.2c0-0.4,0-0.8,0-1.2l-20-103.2c-8.8-31.6-20-56-40.8-68.4v-10h27.6c2,0,3.6-0.8,4.4-2.4
	c0.8-1.6,1.2-3.6,0-5.2l-10-20.8V44.8H278.8z M273.6,34.4h-4.8V10.8h4.8V34.4z M158,30c12-12.8,30.4-19.2,55.2-19.2H258v23.6h-31.6
	c-0.8,0-1.6,0-2,0.4l-0.4,0.4c-0.4,0.4-0.8,0.4-1.2,0.8l0,0l-20.4,25.2h-58C145.2,53.2,148,40.4,158,30z M191.6,346H152
	c-37.6,0-68.4-30.4-68.8-68l16-84c8.8-2.8,39.2-11.2,73.2,1.2c10.4,3.6,22,5.6,33.6,5.6c12.8,0,25.2-2.4,37.2-6.8l16,84
	C260,315.6,229.2,346,191.6,346z M240.4,175.6l1.6,7.6c-21.2,8-45.2,8.8-65.6,1.6c-32-11.6-60.8-6.4-74.8-2.8l1.2-6
	c14.4-51.6,32.4-70,68.8-70C208.4,106,226.4,124.4,240.4,175.6z M171.6,95.2c-10.8,0-19.6,1.6-27.6,4.4v-28h55.2v28
	C191.2,96.8,182.4,95.2,171.6,95.2z M210,84V68.4l11.2-14v13.2c0,0.8,0.4,1.6,0.4,2.4l7.2,13.6H210V84z"/>
<path style="fill:#3BB7D6;" d="M152,346h39.6c37.6,0,68.4-30.4,68.8-68l-16-84c-12,4.4-24.8,6.8-37.2,6.8c-11.6,0-23.2-2-33.6-5.6
	c-34-12-64.4-4-73.2-1.2l-16,84C83.6,315.6,114.4,346,152,346z"/>
<path style="fill:#7CCBD8;" d="M102,278l16-84c4.4-1.6,13.6-4,26-5.2c-21.6-1.6-38.4,2.8-44.8,5.2l-16,84c0.4,37.6,30.8,68,68.8,68
	h18.8C133.2,346,102.4,315.6,102,278z"/>
<g>
</g>
<g>
</g>
<g>
</g>
<g>
</g>
<g>
</g>
<g>
</g>
<g>
</g>
<g>
</g>
<g>
</g>
<g>
</g>
<g>
</g>
<g>
</g>
<g>
</g>
<g>
</g>
<g>
</g>
</svg>
