<?xml version="1.0" encoding="iso-8859-1"?>
<!-- Generator: Adobe Illustrator 19.0.0, SVG Export Plug-In . SVG Version: 6.00 Build 0)  -->
<svg xmlns="http://www.w3.org/2000/svg" xmlns:xlink="http://www.w3.org/1999/xlink" version="1.1" id="Capa_1" x="0px" y="0px" viewBox="0 0 455 455" style="enable-background:new 0 0 455 455;" xml:space="preserve" width="512" height="512">
<g>
	<path style="fill:#6DA8D6;" d="M424.19,94.22l-45.93-8.69H76.74l-45.93,8.69c-14.39,2.76-26.17,17.02-26.17,31.67v302.46   c0,14.66,11.99,26.65,26.65,26.65h392.42c14.66,0,26.65-11.99,26.65-26.65V125.89C450.36,111.24,438.58,96.98,424.19,94.22z"/>
	<path style="fill:#FFFFFF;" d="M227.5,53.579L110.39,106.98v140.8c0,47.06,27.75,87.63,67.78,106.23h98.66   c40.03-18.6,67.78-59.17,67.78-106.23v-140.8L227.5,53.579z"/>
	<polygon style="fill:#F2484B;" points="272.95,112.36 272.4,112.71 248.91,170.5 227.5,190.5 206.09,170.5 182.6,112.71    182.05,112.36 182.6,70.21 272.4,70.21  "/>
	<circle style="fill:#185F8D;" cx="392.5" cy="353.97" r="7.5"/>
	<circle style="fill:#185F8D;" cx="362.5" cy="383.97" r="7.5"/>
	<path style="fill:#F2EBD9;" d="M348.26,0H106.74c-16.5,0-30,13.5-30,30v55.53l87.04,55.49l38.77-60.81h49.9l38.77,60.81   l87.04-55.49V30C378.26,13.5,364.76,0,348.26,0z"/>
	<polyline style="fill:#FFCC75;" points="253.453,80.212 332.206,30 124.799,30.003 203.548,80.212  "/>
	<path style="fill:#BD1515;" d="M248.91,170.5l27.92,183.51c-14.99,6.99-31.71,10.88-49.33,10.88s-34.34-3.89-49.33-10.88   l27.92-183.51H248.91z"/>
</g>















</svg>
